<svg width="98" height="21" viewBox="0 0 98 21" fill="none" xmlns="http://www.w3.org/2000/svg">
<path d="M10.4411 1.74023L13.1297 7.18697L19.1419 8.06575L14.7915 12.3031L15.8182 18.2893L10.4411 15.4615L5.06396 18.2893L6.09066 12.3031L1.74023 8.06575L7.75252 7.18697L10.4411 1.74023Z" fill="#FFC700"/>
<path d="M29.5837 1.74023L32.2722 7.18697L38.2845 8.06575L33.9341 12.3031L34.9608 18.2893L29.5837 15.4615L24.2065 18.2893L25.2332 12.3031L20.8828 8.06575L26.8951 7.18697L29.5837 1.74023Z" fill="#FFC700"/>
<path d="M48.7243 1.74023L51.4129 7.18697L57.4251 8.06575L53.0747 12.3031L54.1014 18.2893L48.7243 15.4615L43.3472 18.2893L44.3739 12.3031L40.0234 8.06575L46.0357 7.18697L48.7243 1.74023Z" fill="#FFC700"/>
<path d="M67.8669 1.74023L70.5554 7.18697L76.5677 8.06575L72.2173 12.3031L73.244 18.2893L67.8669 15.4615L62.4897 18.2893L63.5164 12.3031L59.166 8.06575L65.1783 7.18697L67.8669 1.74023Z" fill="#FFC700"/>
<path d="M87.0075 2.23167L89.501 7.28325C89.5327 7.34738 89.5938 7.39186 89.6646 7.4022L95.241 8.21728L91.2061 12.1472C91.1548 12.1972 91.1314 12.2692 91.1435 12.3398L92.0957 17.8916L87.1087 15.269C87.0454 15.2356 86.9696 15.2356 86.9062 15.269L81.9193 17.8916L82.8715 12.3398C82.8836 12.2692 82.8601 12.1972 82.8088 12.1472L78.774 8.21728L84.3504 7.4022C84.4212 7.39186 84.4823 7.34738 84.514 7.28325L87.0075 2.23167Z" stroke="#FFC700" stroke-width="0.435043" stroke-linecap="round" stroke-linejoin="round"/>
<path d="M87.0075 15.4615L87.0075 1.74023L84.3189 7.18697L78.3066 8.06575L82.6571 12.3031L81.6304 18.2893L87.0075 15.4615Z" fill="#FFC700"/>
</svg>
